# xmcd
#
# Track frame offsets: 
#        150
#        17994
#        33084
#        55310
#        72677
#        100008
#        125936
#        147574
#        169303
#        188891
#        206958
#        225226
#
# Disc length: 3274 seconds
#
# Revision: 2
# Processed by: cddbd v1.5.2PL0 Copyright (c) Steve Scherf et al.
# Submitted via: ExactAudioCopy v1.1
#
DISCID=b70cc80c
DTITLE=Sia Tolno - African Woman
DYEAR=2014
DGENRE=World
TTITLE0=Waka Waka Woman
TTITLE1=Mouka Mouka
TTITLE2=Yaguine Et Fodé
TTITLE3=African Police
TTITLE4=Rebel Leader
TTITLE5=Idjo Weh
TTITLE6=Djumata
TTITLE7=Kekeleh
TTITLE8=Mama
TTITLE9=Na Mi Yone
TTITLE10=Réconciliation
TTITLE11=Manu
EXTD=
EXTT0=
EXTT1=
EXTT2=
EXTT3=
EXTT4=
EXTT5=
EXTT6=
EXTT7=
EXTT8=
EXTT9=
EXTT10=
EXTT11=
PLAYORDER=
